#!Matlab matrix to amc conversion
:FULLY-SPECIFIED
:DEGREES
166
root -2.234576 0.422229 65.522379 7.221308 -5.657745 -3.520812
lowerback -5.905750 2.903756 -0.527448
upperback -1.459708 3.859262 1.952156
thorax 1.629132 1.922366 2.566572
lowerneck -23.634274 -4.377711 -12.516781
upperneck 25.070622 -5.266155 12.514768
head 13.024381 -1.878596 6.099814
rclavicle 0.000000 -0.000000
rhumerus -22.767667 22.480650 -83.792502
rradius 47.397243
rwrist -19.594123
rhand -28.856200 -18.800500
rfingers 7.125020
rthumb -2.212790 -48.768800
lclavicle 0.000000 -0.000000
lhumerus -54.968693 15.648013 63.866978
lradius 2.897199
lwrist -31.745360
lhand -19.668800 -28.799300
lfingers 7.125020
lthumb 6.659510 1.076010
rfemur 23.390282 0.334155 23.946414
rtibia 5.294266
rfoot 17.145601 5.495882
rtoes -20.766800
lfemur -39.802229 8.227780 -21.121104
ltibia 29.890458
lfoot 5.151352 3.601423
ltoes -22.051700
167
root -2.212895 0.452576 65.972551 6.707729 -5.192899 -2.483630
lowerback -5.389103 2.732968 -1.412681
upperback -1.531365 3.693692 1.624097
thorax 1.237658 1.840910 2.680732
lowerneck -23.409497 -4.388992 -12.668259
upperneck 25.119134 -5.272443 12.570721
head 13.011160 -1.896504 6.147538
rclavicle 0.000000 -0.000000
rhumerus -24.026437 21.450815 -84.429216
rradius 47.011058
rwrist -19.830787
rhand -28.856200 -18.800500
rfingers 7.125020
rthumb -2.212790 -48.768800
lclavicle 0.000000 -0.000000
lhumerus -54.271288 15.079547 64.905560
lradius 3.115688
lwrist -30.396307
lhand -19.668800 -28.799300
lfingers 7.125020
lthumb 6.659510 1.076010
rfemur 18.613813 -1.311481 22.169308
rtibia 16.663138
rfoot 19.487605 4.840488
rtoes -20.766800
lfemur -38.705011 8.443902 -22.819792
ltibia 31.122878
lfoot 3.534443 1.501567
ltoes -22.051700
168
root -2.178156 0.500765 66.410064 6.275384 -5.004727 -1.178170
lowerback -4.959954 2.625490 -2.481444
upperback -1.568787 3.613605 1.201265
thorax 0.922650 1.803415 2.813592
lowerneck -23.333853 -4.402696 -12.750167
upperneck 25.182000 -5.266238 12.541006
head 13.024778 -1.908892 6.153475
rclavicle 0.000000 -0.000000
rhumerus -25.144900 20.573312 -85.134788
rradius 46.301796
rwrist -20.280732
rhand -28.856200 -18.800500
rfingers 7.125020
rthumb -2.212790 -48.768800
lclavicle 0.000000 -0.000000
lhumerus -53.516300 14.922277 65.534069
lradius 3.696635
lwrist -29.512439
lhand -19.668800 -28.799300
lfingers 7.125020
lthumb 6.659510 1.076010
rfemur 13.762964 -2.634391 20.177012
rtibia 27.423978
rfoot 21.050911 3.222066
rtoes -20.766800
lfemur -37.149500 8.519573 -24.541326
ltibia 31.433137
lfoot 1.889774 0.398638
ltoes -22.051700
169
root -2.136532 0.565691 66.830992 5.967419 -5.110916 0.762304
lowerback -4.741827 2.546912 -4.131778
upperback -1.568867 3.600711 0.580351
thorax 0.736802 1.797153 3.078768
lowerneck -23.457727 -4.404957 -12.719485
upperneck 25.299917 -5.236027 12.417085
head 13.090408 -1.907351 6.111082
rclavicle -0.000000 -0.000000
rhumerus -26.114082 19.672445 -85.896772
rradius 45.140630
rwrist -20.665462
rhand -28.856200 -18.800500
rfingers 7.125020
rthumb -2.212790 -48.768800
lclavicle -0.000000 -0.000000
lhumerus -52.596558 15.109158 65.955070
lradius 4.598761
lwrist -28.922747
lhand -19.668800 -28.799300
lfingers 7.125020
lthumb 6.659510 1.076010
rfemur 9.289840 -3.444383 17.509974
rtibia 36.834543
rfoot 22.264410 0.260190
rtoes -20.766800
lfemur -34.797713 8.326247 -26.647559
ltibia 30.280331
lfoot 0.926804 0.285593
ltoes -22.051700
170
root -2.097583 0.646034 67.229292 5.773979 -5.541373 2.949205
lowerback -4.771846 2.465352 -5.884004
upperback -1.517485 3.584491 -0.107931
thorax 0.739782 1.787730 3.339138
lowerneck -23.733884 -4.282281 -12.536715
upperneck 25.692269 -5.033467 12.123520
head 13.259161 -1.834957 6.019470
rclavicle -0.000000 -0.000000
rhumerus -26.645477 18.945303 -86.655724
rradius 43.641467
rwrist -20.963612
rhand -28.856200 -18.800500
rfingers 7.125020
rthumb -2.212790 -48.768800
lclavicle -0.000000 -0.000000
lhumerus -51.298895 15.427537 66.747007
lradius 5.627056
lwrist -28.443062
lhand -19.668800 -28.799300
lfingers 7.125020
lthumb 6.659510 1.076010
rfemur 4.715356 -3.873349 14.505206
rtibia 45.688796
rfoot 22.552786 -3.593411
rtoes -20.766800
lfemur -31.820323 7.785956 -28.834620
ltibia 27.829670
lfoot -0.148465 0.801669
ltoes -22.051700
171
root -2.068231 0.738593 67.603912 5.685619 -6.011456 4.342524
lowerback -4.890489 2.342921 -6.757059
upperback -1.430569 3.457769 -0.550368
thorax 0.876179 1.725144 3.364719
lowerneck -23.947117 -4.010992 -12.287598
upperneck 26.101155 -4.622983 11.761199
head 13.390678 -1.676161 5.924354
rclavicle -0.000000 -0.000000
rhumerus -26.763732 18.588955 -87.428898
rradius 41.842834
rwrist -21.065757
rhand -28.856200 -18.800500
rfingers 7.125020
rthumb -2.212790 -48.768800
lclavicle -0.000000 -0.000000
lhumerus -49.772671 16.146086 67.618824
lradius 6.653501
lwrist -28.430654
lhand -19.668800 -28.799300
lfingers 7.125020
lthumb 6.659510 1.076010
rfemur -0.217946 -4.160860 12.607515
rtibia 53.988992
rfoot 20.812522 -7.600588
rtoes -20.766800
lfemur -28.897555 7.322569 -30.238650
ltibia 25.346415
lfoot -2.042258 1.379370
ltoes -22.051700
172
root -2.048509 0.837810 67.962461 5.677274 -6.192572 4.388404
lowerback -4.887070 2.161595 -6.390178
upperback -1.387814 3.181628 -0.569010
thorax 0.963459 1.591286 3.132699
lowerneck -23.893865 -3.675895 -12.082495
upperneck 26.298161 -4.135931 11.463016
head 13.378443 -1.485355 5.861789
rclavicle -0.000000 -0.000000
rhumerus -26.895675 18.409866 -88.173071
rradius 39.835625
rwrist -20.687163
rhand -28.856200 -18.800500
rfingers 7.125020
rthumb -2.212790 -48.768800
lclavicle -0.000000 -0.000000
lhumerus -48.294955 17.532484 67.971921
lradius 7.615727
lwrist -29.416356
lhand -19.668800 -28.799300
lfingers 7.125020
lthumb 6.659510 1.076010
rfemur -4.899692 -4.489289 12.775970
rtibia 60.522622
rfoot 17.386377 -11.039762
rtoes -20.766800
lfemur -26.490466 7.393354 -30.379342
ltibia 23.816052
lfoot -4.167522 1.518487
ltoes -22.051700
173
root -2.032467 0.936500 68.317277 5.675889 -6.183879 3.583958
lowerback -4.769359 1.948414 -5.308139
upperback -1.422168 2.829499 -0.297058
thorax 0.938813 1.420273 2.797821
lowerneck -23.653145 -3.319844 -11.877665
upperneck 26.588000 -3.650083 11.153214
head 13.361446 -1.301169 5.797377
rclavicle -0.000000 -0.000000
rhumerus -27.213914 18.145367 -88.773206
rradius 37.821683
rwrist -19.798147
rhand -28.856200 -18.800500
rfingers 7.125020
rthumb -2.212790 -48.768800
lclavicle -0.000000 -0.000000
lhumerus -46.746210 18.992851 68.195516
lradius 8.466319
lwrist -30.953406
lhand -19.668800 -28.799300
lfingers 7.125020
lthumb 6.659510 1.076010
rfemur -8.803769 -4.742006 14.306387
rtibia 64.814776
rfoot 13.606873 -13.609684
rtoes -20.766800
lfemur -24.436366 7.755611 -29.645622
ltibia 23.003873
lfoot -5.800175 1.270518
ltoes -22.051700
174
root -2.014919 1.028713 68.677642 5.692783 -5.985498 2.828889
lowerback -4.744690 1.657165 -4.346948
upperback -1.475925 2.389277 -0.002769
thorax 0.935983 1.202020 2.546942
lowerneck -23.361270 -2.962796 -11.639549
upperneck 26.931743 -3.179626 10.822530
head 13.358052 -1.124918 5.717797
rclavicle -0.000000 -0.000000
rhumerus -27.781848 17.723447 -89.241880
rradius 35.831300
rwrist -18.529163
rhand -28.856200 -18.800500
rfingers 7.125020
rthumb -2.212790 -48.768800
lclavicle -0.000000 -0.000000
lhumerus -44.779125 19.589352 69.304734
lradius 9.350283
lwrist -31.464610
lhand -19.668800 -28.799300
lfingers 7.125020
lthumb 6.659510 1.076010
rfemur -12.197295 -4.859246 15.889231
rtibia 67.530978
rfoot 9.946986 -15.776086
rtoes -20.766800
lfemur -22.052173 7.795331 -28.878058
ltibia 21.591345
lfoot -6.592086 1.144854
ltoes -22.051700
175
root -1.997069 1.108260 69.043638 5.722132 -5.500445 2.578079
lowerback -4.991712 1.211624 -3.887834
upperback -1.486068 1.780867 0.196028
thorax 1.105232 0.894400 2.465276
lowerneck -23.108902 -2.586786 -11.350025
upperneck 27.323731 -2.678702 10.448512
head 13.384389 -0.937081 5.618686
rclavicle -0.000000 -0.000000
rhumerus -28.639248 17.444776 -89.648318
rradius 34.144697
rwrist -17.268826
rhand -28.856200 -18.800500
rfingers 7.125020
rthumb -2.212790 -48.768800
lclavicle -0.000000 -0.000000
lhumerus -42.040129 18.035268 72.585668
lradius 10.369567
lwrist -29.050932
lhand -19.668800 -28.799300
lfingers 7.125020
lthumb 6.659510 1.076010
rfemur -15.637674 -4.987263 16.779869
rtibia 69.553000
rfoot 6.094416 -17.355388
rtoes -20.766800
lfemur -19.182508 6.959503 -28.574417
ltibia 19.189281
lfoot -6.852264 1.627134
ltoes -22.051700
176
root -1.984827 1.166315 69.408969 5.694708 -4.745643 2.590579
lowerback -5.398260 0.644282 -3.716928
upperback -1.443028 1.029260 0.378065
thorax 1.410647 0.512663 2.516343
lowerneck -22.953358 -2.209799 -11.038206
upperneck 27.888760 -2.159625 10.020413
head 13.504598 -0.748055 5.506697
rclavicle -0.000000 -0.000000
rhumerus -29.775437 17.620412 -90.071287
rradius 33.101858
rwrist -16.566603
rhand -28.856200 -18.800500
rfingers 7.125020
rthumb -2.212790 -48.768800
lclavicle -0.000000 -0.000000
lhumerus -38.801686 13.922008 77.721676
lradius 11.637919
lwrist -23.687678
lhand -19.668800 -28.799300
lfingers 7.125020
lthumb 6.659510 1.076010
rfemur -19.215889 -5.317232 17.266790
rtibia 71.089011
rfoot 1.970827 -17.538515
rtoes -20.766800
lfemur -16.695346 5.467716 -28.588317
ltibia 17.489260
lfoot -7.551045 2.470358
ltoes -22.051700
177
root -1.982114 1.197229 69.768795 5.563591 -3.837784 2.245467
lowerback -5.603705 0.075815 -3.320775
upperback -1.423503 0.259126 0.693462
thorax 1.600402 0.124197 2.577307
lowerneck -22.812220 -1.887452 -10.756918
upperneck 28.599555 -1.719508 9.597049
head 13.697741 -0.597897 5.397153
rclavicle -0.000000 -0.000000
rhumerus -31.292963 17.906676 -90.488610
rradius 32.443565
rwrist -16.212213
rhand -28.856200 -18.800500
rfingers 7.125020
rthumb -2.212790 -48.768800
lclavicle -0.000000 -0.000000
lhumerus -35.573975 8.926631 82.394039
lradius 13.237763
lwrist -18.181968
lhand -19.668800 -28.799300
lfingers 7.125020
lthumb 6.659510 1.076010
rfemur -22.523850 -5.790433 18.390370
rtibia 71.355103
rfoot -1.801746 -16.429824
rtoes -20.766800
lfemur -14.873502 4.225102 -28.226791
ltibia 17.457248
lfoot -8.925161 2.804984
ltoes -22.051700
178
root -1.984862 1.203227 70.127575 5.397874 -2.722406 1.764906
lowerback -5.578948 -0.464877 -2.942343
upperback -1.434567 -0.480428 1.045873
thorax 1.644045 -0.246387 2.688440
lowerneck -22.634955 -1.693459 -10.586618
upperneck 29.129172 -1.466353 9.323202
head 13.839277 -0.519418 5.325979
rclavicle -0.000000 -0.000000
rhumerus -33.233142 18.081618 -90.845179
rradius 32.076899
rwrist -16.037130
rhand -28.856200 -18.800500
rfingers 7.125020
rthumb -2.212790 -48.768800
lclavicle -0.000000 -0.000000
lhumerus -32.481658 3.828514 85.899702
lradius 15.191702
lwrist -13.282549
lhand -19.668800 -28.799300
lfingers 7.125020
lthumb 6.659510 1.076010
rfemur -25.350242 -6.345225 19.860816
rtibia 70.119197
rfoot -4.807619 -14.695591
rtoes -20.766800
lfemur -13.256963 3.391156 -27.657246
ltibia 18.050398
lfoot -10.478482 2.574299
ltoes -22.051700
